<?xml version="1.0" encoding="utf-8"?>
<!-- Generator: Adobe Illustrator 22.1.0, SVG Export Plug-In . SVG Version: 6.00 Build 0)  -->
<svg version="1.1"
	 id="svg1" inkscape:version="0.40" sodipodi:docbase="/home/vector" sodipodi:docname="chess_set_symbols.svg" sodipodi:version="0.32" xmlns:cc="http://web.resource.org/cc/" xmlns:dc="http://purl.org/dc/elements/1.1/" xmlns:inkscape="http://www.inkscape.org/namespaces/inkscape" xmlns:rdf="http://www.w3.org/1999/02/22-rdf-syntax-ns#" xmlns:sodipodi="http://sodipodi.sourceforge.net/DTD/sodipodi-0.dtd"
	 xmlns="http://www.w3.org/2000/svg" xmlns:xlink="http://www.w3.org/1999/xlink" x="0px" y="0px" viewBox="0 0 111 110"
	 style="enable-background:new 0 0 111 110;" xml:space="preserve">
<style type="text/css">
	.st0{fill:#FFFFFF;stroke:#000000;stroke-miterlimit:10;}
</style>
<ellipse class="st0" cx="17.1" cy="29.7" rx="4.3" ry="3.8"/>
<ellipse class="st0" cx="34.2" cy="21.1" rx="4.9" ry="4"/>
<circle class="st0" cx="55.4" cy="17.1" r="4.7"/>
<ellipse class="st0" cx="75.4" cy="21.1" rx="4" ry="4.9"/>
<circle class="st0" cx="92.3" cy="29.1" r="4.5"/>
<rect x="30.8" y="57.3" class="st0" width="47.8" height="26.7"/>
<sodipodi:namedview  bordercolor="#666666" borderopacity="1.0" id="base" inkscape:current-layer="layer1" inkscape:cx="420.94487" inkscape:cy="151.37844" inkscape:pageopacity="0.0" inkscape:pageshadow="2" inkscape:window-height="994" inkscape:window-width="1270" inkscape:window-x="0" inkscape:window-y="5" inkscape:zoom="1.3674339" pagecolor="#ffffff">
	</sodipodi:namedview>
<g id="layer1" inkscape:groupmode="layer" inkscape:label="Layer 1">
	<path id="path1742" d="M33.4,79.9c0,1.4,1,2.1,3,2.1l8.9-0.6c0,0,2.6-0.1,7.7-0.4h2l15.1,0.8l3.1,0.3c2,0,3-0.7,3-2.1
		c0-2.5-5.8-3.9-17.3-4.1h-4c-9.7,0-16.2,0.7-19.5,2.2C34.1,78.5,33.4,79.1,33.4,79.9 M17.3,25.9c-1.6,0-2.7,0.8-3.1,2.5
		c-0.1,0.3-0.1,0.5-0.1,0.8c0,1.6,0.8,2.7,2.5,3.1c0.3,0.1,0.5,0.1,0.8,0.1c2.1,0,3.1-1.1,3.1-3.2C20.4,27,19.4,25.9,17.3,25.9
		 M34.2,17.8c-2.2,0-3.4,1.1-3.4,3.2c0,2.2,1.1,3.2,3.4,3.2c2.1,0,3.1-1.1,3.1-3.2S36.3,17.8,34.2,17.8 M75.4,17.8
		c-1.5,0-2.5,0.7-3,2.2l-0.1,1c0,2.2,1,3.2,3.1,3.2c2.2,0,3.2-1.1,3.2-3.2S77.5,17.8,75.4,17.8 M92.2,25.9c-2.1,0-3.1,1.1-3.1,3.2
		c0,2.2,1,3.2,3.1,3.2c2.2,0,3.2-1.1,3.2-3.2c0-1.6-0.8-2.7-2.5-3.1C92.7,26,92.4,25.9,92.2,25.9 M82.9,87.6c0,2.4-4.4,4.1-13.3,5
		l-12.5,0.8h-2.3c-10.5,0-18.5-0.9-24-2.7c-2.7-0.8-4-1.8-4-3.1c0-2.5,0.7-5.3,2.1-8.5c0.9-1.9,1.4-3.2,1.4-4c0-1.6-2-4.8-5.9-9.6
		c-2.2-2.5-3.4-4.2-3.7-5.2c0-0.5-0.3-1.7-0.8-3.5l-1.7-6.5c-1.1-4.2-1.9-8.7-2.2-13.4c-4-1.6-5.9-4.3-5.9-7.9
		c0-3.1,1.4-5.3,4.3-6.6c0.9-0.4,2-0.6,3.1-0.6c2.8,0,4.9,1.3,6.3,3.9c0.6,1.1,0.9,2.2,0.9,3.4L24.1,34c0,3.9,2.8,8.6,8.3,14.2
		C32.8,44.7,33,41,33,37.1c0-5.8-1-9.4-3.1-11c-0.2-0.2-0.3-0.3-0.5-0.4c-1.5-0.9-2.3-2.6-2.3-5c0-3.2,1.5-5.4,4.4-6.6
		c0.9-0.4,1.9-0.6,3-0.6c3,0,5.2,1.4,6.5,4.1c0.5,0.9,0.8,2,0.8,3.1l-0.9,5.6c0,4.8,2.4,12.2,7.1,22.1c1.8-8.1,2.7-14.3,2.7-18.6
		c0-3.6-0.6-6.9-1.9-9.9c-0.5-1.1-0.8-2-0.8-2.6c0-3.2,1.4-5.4,4.3-6.6c0.9-0.4,1.9-0.6,3-0.6c3,0,5.1,1.4,6.3,4.3
		c0.4,0.9,0.6,1.9,0.6,3c0,0.2-0.7,2.5-2.2,6.8c-0.3,1.1-0.5,3-0.5,5.7c0,4.3,0.9,10.5,2.7,18.6c4.6-9.8,7-17.2,7-22.1L68,20.9v-0.1
		c0-3.2,1.5-5.4,4.4-6.6c0.9-0.4,1.9-0.6,3-0.6c3,0,5.2,1.4,6.5,4.1c0.5,0.9,0.8,2,0.8,3.1c0,2.4-0.8,4.1-2.3,5.2
		c-2.4,1.5-3.6,5.3-3.6,11.4c0,3.8,0.2,7.4,0.6,11c5.5-5.6,8.3-10.3,8.3-14.2l-0.6-4.9c0-3,1.4-5.2,4.1-6.5c0.9-0.5,2-0.8,3.1-0.8
		c3.1,0,5.3,1.4,6.6,4.1l0.8,2.5v0.6c0,3.4-2,6.1-5.9,7.9c-0.5,5.9-2,13.2-4.4,21.8c-0.2,0.7-0.3,1.2-0.3,1.5c0,0.6-0.6,1.6-1.9,3
		l-1.5,1.9c-4.1,4.7-6.2,8-6.2,9.8c0,0.5,1,3.2,3.1,8C82.7,84.8,82.9,86.3,82.9,87.6 M54.9,13.8c-1.6,0-2.7,0.8-3.1,2.5
		c-0.1,0.3-0.1,0.5-0.1,0.8c0,1.6,0.8,2.7,2.5,3.1c0.3,0.1,0.5,0.1,0.8,0.1c2.1,0,3.1-1.1,3.1-3.2c0-1.5-0.7-2.6-2.2-3.1
		C55.5,13.8,55.2,13.8,54.9,13.8 M78.1,64.1c0-2.8-7.7-4.1-23.2-4.1c-15.6,0-23.4,1.4-23.4,4.3c0,1.2,1.1,1.8,3.4,1.8
		c2.6,0,5.8-0.2,9.7-0.6l8.4-0.3h2c2.4,0,7,0.2,13.7,0.6l6.3,0.3C77.1,66.1,78.1,65.4,78.1,64.1"/>
</g>
</svg>
