<?xml version="1.0" encoding="utf-8"?>
<!-- Generator: Adobe Illustrator 22.1.0, SVG Export Plug-In . SVG Version: 6.00 Build 0)  -->
<svg version="1.1"
	 id="svg1" inkscape:version="0.40" sodipodi:docbase="/home/vector" sodipodi:docname="chess_set_symbols.svg" sodipodi:version="0.32" xmlns:cc="http://web.resource.org/cc/" xmlns:dc="http://purl.org/dc/elements/1.1/" xmlns:inkscape="http://www.inkscape.org/namespaces/inkscape" xmlns:rdf="http://www.w3.org/1999/02/22-rdf-syntax-ns#" xmlns:sodipodi="http://sodipodi.sourceforge.net/DTD/sodipodi-0.dtd"
	 xmlns="http://www.w3.org/2000/svg" xmlns:xlink="http://www.w3.org/1999/xlink" x="0px" y="0px" viewBox="0 0 121 118"
	 style="enable-background:new 0 0 121 118;" xml:space="preserve">
<style type="text/css">
	.st0{fill:#FFFFFF;stroke:#000000;stroke-miterlimit:10;}
	.st1{fill:none;}
</style>
<path class="st0" d="M63.3,15.4h-1.8c-2.1,0-3.8,1.7-3.8,3.8v2.5c0,2.1,1.7,3.8,3.8,3.8h1.8c2.1,0,3.8-1.7,3.8-3.8v-2.5
	C67.1,17.1,65.4,15.4,63.3,15.4z"/>
<rect x="46.5" y="34.4" class="st0" width="31.6" height="40.2"/>
<sodipodi:namedview  bordercolor="#666666" borderopacity="1.0" id="base" inkscape:current-layer="layer1" inkscape:cx="420.94487" inkscape:cy="151.37844" inkscape:pageopacity="0.0" inkscape:pageshadow="2" inkscape:window-height="994" inkscape:window-width="1270" inkscape:window-x="0" inkscape:window-y="5" inkscape:zoom="1.3674339" pagecolor="#ffffff">
	</sodipodi:namedview>
<g id="layer1" inkscape:groupmode="layer" inkscape:label="Layer 1">
	<path id="path1731" d="M55.8,69.1c-4.4,0-6.6,0.7-6.6,2.1c0,1.2,1.9,1.9,5.8,2.2h7.1c8.6,0,12.9-0.7,12.9-2.2
		c0-1.4-2.2-2.1-6.6-2.1H55.8 M55.8,61.1c-3.8,0-5.9,0.4-6.3,1.3c-0.2,0.2-0.3,0.4-0.3,0.8c0,0.9,0.9,1.5,2.7,1.7
		c2.2,0.3,5.6,0.4,10.2,0.4s8-0.1,10.3-0.4c1.7-0.2,2.6-0.7,2.6-1.7c0-1.4-2.2-2.1-6.6-2.1L55.8,61.1 M79.8,66.6l2.6,9.9
		c0,3-3.1,4.8-9.2,5.3c4.5,1.7,8.6,2.6,12.5,2.6c0.5,0,3.1-0.1,7.6-0.4c3.8,0,6.9,2,9.3,5.9c0.3,0.7,0.8,1.5,1.3,2.3l-4.6,7.1
		c-1.4,1.7-2.8,2.8-4.4,3.4c-0.3-1.8-3.1-2.9-8.3-3.4L83.5,99c-10.6-0.9-17.7-3.1-21.4-6.8c-3.4,3.5-8.5,5.6-15.4,6.1
		c-1.5,0.2-3.6,0.4-6.1,0.8c-6.3,0.5-9.9,1.4-11,2.7c-0.2,0.3-0.3,0.6-0.4,0.9c-2.2-0.9-4.3-3.1-6.3-6.5c-0.8-1.4-1.7-2.7-2.7-4
		c2.3-4.3,4.8-6.9,7.5-7.7c0.9-0.3,2-0.5,3.1-0.5c0,0,2.5,0.1,7.6,0.4c4,0,8.1-0.9,12.5-2.6c-6.1-0.5-9.2-2.3-9.2-5.3
		c0-0.3,0.7-2.5,2.1-6.6c0.4-1.4,0.6-2.3,0.6-2.8c-5.3-6.4-7.9-12-7.9-16.9c0-5.7,2.8-10.8,8.4-15.5c5-4.2,8.6-6.5,10.8-6.7
		C54,25.7,53,23.3,53,20.8c0-4,2-6.5,6.1-7.5c0.9-0.3,1.9-0.4,3-0.4c4.3,0,7.1,1.6,8.4,4.8l0.6,2.7v0.4c0,2.4-0.9,4.8-2.8,7.2
		c1.6,0.4,4.1,1.8,7.4,4c7.9,5.5,11.9,11.6,11.9,18.2C87.5,55.2,84.9,60.7,79.8,66.6 M64.4,54.6v-5.9h4.5v-4.9h-4.5v-5.6h-4.6v5.6
		h-4.5v4.9h4.5v5.9H64.4 M62.1,18.2c-1.7,0-2.8,0.8-3.2,2.3l-0.1,0.8c0,1.6,0.9,2.7,2.6,3.1c0.3,0.1,0.5,0.1,0.8,0.1
		c2.2,0,3.2-1.1,3.2-3.2C65.3,19.2,64.2,18.2,62.1,18.2"/>
</g>
<rect id="_x3C_Slice_x3E_" x="6" y="4.3" class="st1" width="108" height="108"/>
</svg>
