<?xml version="1.0" encoding="utf-8"?>
<!-- Generator: Adobe Illustrator 22.1.0, SVG Export Plug-In . SVG Version: 6.00 Build 0)  -->
<svg version="1.1"
	 id="svg1" inkscape:version="0.40" sodipodi:docbase="/home/vector" sodipodi:docname="chess_set_symbols.svg" sodipodi:version="0.32" xmlns:cc="http://web.resource.org/cc/" xmlns:dc="http://purl.org/dc/elements/1.1/" xmlns:inkscape="http://www.inkscape.org/namespaces/inkscape" xmlns:rdf="http://www.w3.org/1999/02/22-rdf-syntax-ns#" xmlns:sodipodi="http://sodipodi.sourceforge.net/DTD/sodipodi-0.dtd"
	 xmlns="http://www.w3.org/2000/svg" xmlns:xlink="http://www.w3.org/1999/xlink" x="0px" y="0px" viewBox="0 0 101 107"
	 style="enable-background:new 0 0 101 107;" xml:space="preserve">
<sodipodi:namedview  bordercolor="#666666" borderopacity="1.0" id="base" inkscape:current-layer="layer1" inkscape:cx="420.94487" inkscape:cy="151.37844" inkscape:pageopacity="0.0" inkscape:pageshadow="2" inkscape:window-height="994" inkscape:window-width="1270" inkscape:window-x="0" inkscape:window-y="5" inkscape:zoom="1.3674339" pagecolor="#ffffff">
	</sodipodi:namedview>
<g id="layer1" inkscape:groupmode="layer" inkscape:label="Layer 1">
	<path id="path1722" d="M22.8,90.3c-0.1-1-0.1-3.1-0.1-6.1c0-10.8,3.4-18.9,10.1-24.1c2-1.6,4.4-3.1,7.2-4.5c-3.4-1-5.6-3.6-6.8-7.6
		c-0.3-1.3-0.5-2.6-0.5-4c0-5.8,3-9.9,8.9-12.3c-1.5-2.6-2.3-5-2.3-7.4c0-3.9,1.9-6.8,5.7-8.6c1.7-0.9,3.6-1.3,5.6-1.3
		c4.3,0,7.5,1.7,9.6,5c0.9,1.5,1.4,3.1,1.4,4.9c0,2.5-0.7,4.9-2.2,7.4c3.2,1.3,5.5,3,6.8,5.2c1.4,2.3,2.1,4.7,2.1,7.1
		c0,4.5-1.5,7.9-4.6,10.2c-0.8,0.7-1.6,1.2-2.6,1.4c7.9,4,13,9.3,15.4,15.9c1.2,3.6,1.8,7.9,1.8,12.8c0,3,0,5-0.1,6.1H22.8"/>
</g>
</svg>
