<?xml version="1.0" encoding="utf-8"?>
<!-- Generator: Adobe Illustrator 22.1.0, SVG Export Plug-In . SVG Version: 6.00 Build 0)  -->
<svg version="1.1"
	 id="svg1" inkscape:version="0.40" sodipodi:docbase="/home/vector" sodipodi:docname="chess_set_symbols.svg" sodipodi:version="0.32" xmlns:cc="http://web.resource.org/cc/" xmlns:dc="http://purl.org/dc/elements/1.1/" xmlns:inkscape="http://www.inkscape.org/namespaces/inkscape" xmlns:rdf="http://www.w3.org/1999/02/22-rdf-syntax-ns#" xmlns:sodipodi="http://sodipodi.sourceforge.net/DTD/sodipodi-0.dtd"
	 xmlns="http://www.w3.org/2000/svg" xmlns:xlink="http://www.w3.org/1999/xlink" x="0px" y="0px" viewBox="0 0 108 108"
	 style="enable-background:new 0 0 108 108;" xml:space="preserve">
<style type="text/css">
	.st0{fill:#FFFFFF;stroke:#000000;stroke-miterlimit:10;}
	.st1{fill:none;}
</style>
<rect x="39.5" y="35.5" class="st0" width="33.8" height="33.8"/>
<sodipodi:namedview  bordercolor="#666666" borderopacity="1.0" id="base" inkscape:current-layer="layer1" inkscape:cx="420.94487" inkscape:cy="151.37844" inkscape:pageopacity="0.0" inkscape:pageshadow="2" inkscape:window-height="994" inkscape:window-width="1270" inkscape:window-x="0" inkscape:window-y="5" inkscape:zoom="1.3674339" pagecolor="#ffffff">
	</sodipodi:namedview>
<g id="layer1" inkscape:groupmode="layer" inkscape:label="Layer 1">
	<path id="path1734" d="M25.9,90.3l-2.5-2.5v-9.2l13-12.9V40.1l-10.1-9.9V18.7l3.6-3.6h9.2l2.3,2.2v3.2h4.9v-3.2l2.2-2.2h14.3
		l2.2,2.2v3.2h5v-3.2l2.2-2.2h9.3l3.6,3.6v11.5L75,40.1v25.7l13,12.9v9.2l-2.6,2.5L25.9,90.3 M41.1,62.8v4.4h29.3v-4.4L41.1,62.8
		 M41.1,39.6V44h29.3v-4.4H41.1"/>
</g>
<rect id="_x3C_Slice_x3E_" class="st1" width="108" height="108"/>
</svg>
