<?xml version="1.0" encoding="utf-8"?>
<!-- Generator: Adobe Illustrator 22.1.0, SVG Export Plug-In . SVG Version: 6.00 Build 0)  -->
<svg version="1.1"
	 id="svg1" inkscape:version="0.40" sodipodi:docbase="/home/vector" sodipodi:docname="chess_set_symbols.svg" sodipodi:version="0.32" xmlns:cc="http://web.resource.org/cc/" xmlns:dc="http://purl.org/dc/elements/1.1/" xmlns:inkscape="http://www.inkscape.org/namespaces/inkscape" xmlns:rdf="http://www.w3.org/1999/02/22-rdf-syntax-ns#" xmlns:sodipodi="http://sodipodi.sourceforge.net/DTD/sodipodi-0.dtd"
	 xmlns="http://www.w3.org/2000/svg" xmlns:xlink="http://www.w3.org/1999/xlink" x="0px" y="0px" viewBox="0 0 108 104"
	 style="enable-background:new 0 0 108 104;" xml:space="preserve">
<style type="text/css">
	.st0{fill:#FFFFFF;}
	.st1{fill:#FFFFFF;stroke:#FFFFFF;stroke-miterlimit:10;}
	.st2{fill:none;}
</style>
<rect x="78.1" y="54.4" class="st0" width="8.1" height="29"/>
<rect x="58.9" y="22.5" transform="matrix(0.7917 -0.6109 0.6109 0.7917 -12.1795 49.7901)" class="st0" width="16.1" height="40.4"/>
<ellipse transform="matrix(0.5463 -0.8376 0.8376 0.5463 -27.8906 47.8206)" class="st1" cx="30.2" cy="49.7" rx="20.6" ry="9.5"/>
<sodipodi:namedview  bordercolor="#666666" borderopacity="1.0" id="base" inkscape:current-layer="layer1" inkscape:cx="420.94487" inkscape:cy="151.37844" inkscape:pageopacity="0.0" inkscape:pageshadow="2" inkscape:window-height="994" inkscape:window-width="1270" inkscape:window-x="0" inkscape:window-y="5" inkscape:zoom="1.3674339" pagecolor="#ffffff">
	</sodipodi:namedview>
<g id="layer1" inkscape:groupmode="layer" inkscape:label="Layer 1">
	<path id="path1726" d="M31.5,41.5c2.2,0,4.4-1.2,6.8-3.7c1.3-1.3,1.9-2.4,1.9-3.4c0-1.1-1-1.7-3.1-1.7c-2.4,0-4.4,1.1-6.1,3.2
		c-0.9,1-1.3,2.1-1.3,3.2C29.9,40.7,30.4,41.5,31.5,41.5 M29.3,13.2c0.2,0,0.6,0,1.3-0.1c3.9,0,8,1.3,12.4,3.9
		c0.5,0.3,0.8,0.5,0.8,0.5c2.5-4,4.4-6.1,5.7-6.1c2.8,1.5,4.6,3.2,5.4,5c0.4,0.9,1.1,2.7,1.9,5.4c0.7-0.2,1.4-0.3,2.1-0.3
		c7.2,0,14.1,4.4,20.7,13.3C87.4,45,91.3,59,91.3,76.6c0,4-0.2,7.5-0.5,10.7H36.3c0.2-5.8,2.3-11.2,6.3-16.4c0.4-0.7,1-1.5,1.8-2.3
		c3.2-4,5.1-7.1,5.8-9.3c0.3-1.1,0.6-2.3,0.8-3.5c-5.7,2.2-9.9,5.6-12.8,9.9c-1.3,2.2-2.7,4.4-4.3,6.7c-0.4,0.7-1.1,1-1.9,1
		c-2.2,0-3.2-1.3-3.2-4c-0.9,1.1-1.9,1.7-3,1.7c0,0-0.9-0.2-2.6-0.6c-3.7-0.9-6.3-2.6-7.9-4.9c-0.5-0.8-1.1-1.8-1.7-3.1
		c0.6-3.7,3.6-11.1,8.9-22.1c3.9-7.9,6.3-13.6,7.2-17c0.1-0.8,0.1-1.9,0.1-3.4C30,19,29.8,16.6,29.3,13.2 M21.6,58.5
		c-2.1,0-3.4,0.9-4.1,2.7c-0.2,0.4-0.3,0.9-0.3,1.3c0,0.3,0.1,0.8,0.4,1.3c2.2,0,3.6-0.9,4.1-2.8c0.1-0.3,0.1-0.6,0.1-0.9
		C21.9,59.9,21.8,59.4,21.6,58.5 M85,78.4v-4.8c0-14-3.6-25.5-10.7-34.5c-6.2-7.7-11.8-11.6-16.9-11.6c0,0-0.5-0.1-1.5-0.3
		c-0.2,0.1-0.3,0.2-0.4,0.3c-1.1,0-1.7,0.5-1.7,1.4c0,0.3,0.3,0.8,0.8,1.3c4.6,0.4,9.7,3.7,15.2,9.9c7,8.1,10.5,19.8,10.5,35.1
		c0,0,0,0.3,0,0.8c0,3.8,0.8,5.7,2.5,5.7C84,81.7,84.8,80.6,85,78.4"/>
</g>
<rect id="_x3C_Slice_x3E_" y="6" class="st2" width="108" height="92"/>
</svg>
