<?xml version="1.0" encoding="utf-8"?>
<!-- Generator: Adobe Illustrator 22.1.0, SVG Export Plug-In . SVG Version: 6.00 Build 0)  -->
<svg version="1.1"
	 id="svg1" inkscape:version="0.40" sodipodi:docbase="/home/vector" sodipodi:docname="chess_set_symbols.svg" sodipodi:version="0.32" xmlns:cc="http://web.resource.org/cc/" xmlns:dc="http://purl.org/dc/elements/1.1/" xmlns:inkscape="http://www.inkscape.org/namespaces/inkscape" xmlns:rdf="http://www.w3.org/1999/02/22-rdf-syntax-ns#" xmlns:sodipodi="http://sodipodi.sourceforge.net/DTD/sodipodi-0.dtd"
	 xmlns="http://www.w3.org/2000/svg" xmlns:xlink="http://www.w3.org/1999/xlink" x="0px" y="0px" viewBox="0 0 101 108"
	 style="enable-background:new 0 0 101 108;" xml:space="preserve">
<style type="text/css">
	.st0{fill:#FFFFFF;stroke:#FFFFFF;stroke-miterlimit:10;}
</style>
<rect x="28.3" y="61.7" class="st0" width="43" height="23.6"/>
<ellipse transform="matrix(0.8363 -0.5483 0.5483 0.8363 -18.432 45.6961)" class="st0" cx="67.3" cy="53.7" rx="19.8" ry="14.6"/>
<ellipse transform="matrix(0.5342 -0.8453 0.8453 0.5342 -30.5411 52.2)" class="st0" cx="32.1" cy="53.8" rx="13.8" ry="19.8"/>
<sodipodi:namedview  bordercolor="#666666" borderopacity="1.0" id="base" inkscape:current-layer="layer1" inkscape:cx="420.94487" inkscape:cy="151.37844" inkscape:pageopacity="0.0" inkscape:pageshadow="2" inkscape:window-height="994" inkscape:window-width="1270" inkscape:window-x="0" inkscape:window-y="5" inkscape:zoom="1.3674339" pagecolor="#ffffff">
	</sodipodi:namedview>
<g id="layer1" inkscape:groupmode="layer" inkscape:label="Layer 1">
	<path id="text1061" d="M53.5,61c0,1.5-1.1,2.3-3.2,2.3c-2.4,0-3.6-0.8-3.6-2.3c0-7.1-2.4-13-7.1-17.4c-4.2-3.8-8.3-5.7-12.3-5.7
		c-5.9,0-9.5,2.3-11,7l-0.5,3.5v0.3c0,3.4,2.5,8.2,7.6,14.3c1.4,1.5,2.5,2.8,3.5,3.6c1.4,1.1,3.7,1.7,6.8,1.7
		c3.4,0,8.8-0.6,16.3-1.9c7.6,1.3,13,1.9,16.4,1.9c3.3,0,5.6-0.6,6.8-1.7c3.6-3.2,6.6-7.1,9-11.6c1.4-2.6,2.1-4.7,2.1-6.3
		c0-5.4-2.5-8.8-7.4-10.2c-1.3-0.3-2.7-0.5-4.1-0.5c-4,0-8,1.9-12.1,5.8C56,48,53.5,53.8,53.5,61 M81.6,48.7c0,3.4-2.4,7.5-7.1,12.1
		l-3.4,2.8l-1.3,0.8c-1.6,0.3-3.4,0.4-5.2,0.4c-5.3,0-8-1.1-8-3.2c0.2-6.6,2.2-11.8,5.9-15.5c3.3-3.3,6.6-4.9,10.1-4.9
		c4.4,0,7.2,1.6,8.4,4.8L81.6,48.7 M69.3,81.4c0-2.2-6.3-3.4-19-3.4c-3.4,0-6.5,0.1-9.2,0.4L38,78.7c-4.6,0.6-7,1.5-7,2.6
		c0,1.3,1.2,1.9,3.5,1.9L50.2,82l15.5,1.3C68.1,83.3,69.3,82.6,69.3,81.4 M76.5,84.5c-0.2,5.9-9,8.8-26.3,8.8
		c-17.2,0-25.9-2.9-26.2-8.8c-0.1-5.5-0.9-10.4-2.5-14.7c-0.9-2.3-2.8-5.3-5.4-8.9c-3.4-4.6-5-8.6-5-12.1c0-5.5,2.4-9.8,7.1-12.8
		c2.7-1.7,5.6-2.6,8.9-2.6c4.5,0,8.7,1.6,12.8,4.9c0-4,0.4-6.7,1.2-8.1c0.6-1.6,2.6-3.6,5.9-5.9v-3l-5.3-3.2v-4.6h4.8L48,8.6h4.4
		l1.7,4.8h4.6V18l-5.2,3.2v3c3.3,2.4,5.3,4.5,6.1,6.2l0.9,3.7c0.1,1,0.2,2.4,0.3,4.1c4-3.3,8.2-4.9,12.5-4.9
		c5.8,0,10.2,2.2,13.4,6.6c1.8,2.6,2.7,5.5,2.7,8.8c0,3.5-1.7,7.6-5,12.3l-3,4.1C78.2,70,76.6,76.5,76.5,84.5 M18.8,48.7
		c0-3.6,1.8-5.9,5.4-7c1-0.3,2.1-0.5,3.2-0.5c3.6,0,7.1,1.6,10.3,4.9c3.7,3.8,5.6,9,5.8,15.5c0.1,1.9-1.9,3-5.9,3.2
		c-0.6,0-1.2,0-1.9,0c-1.7,0-3.5-0.1-5.3-0.4c-2.8-1.4-5.7-4.1-8.5-8.1C19.8,53.3,18.8,50.7,18.8,48.7"/>
</g>
</svg>
