<?xml version="1.0" encoding="utf-8"?>
<!-- Generator: Adobe Illustrator 22.1.0, SVG Export Plug-In . SVG Version: 6.00 Build 0)  -->
<svg version="1.1"
	 id="svg1" inkscape:version="0.40" sodipodi:docbase="/home/vector" sodipodi:docname="chess_set_symbols.svg" sodipodi:version="0.32" xmlns:cc="http://web.resource.org/cc/" xmlns:dc="http://purl.org/dc/elements/1.1/" xmlns:inkscape="http://www.inkscape.org/namespaces/inkscape" xmlns:rdf="http://www.w3.org/1999/02/22-rdf-syntax-ns#" xmlns:sodipodi="http://sodipodi.sourceforge.net/DTD/sodipodi-0.dtd"
	 xmlns="http://www.w3.org/2000/svg" xmlns:xlink="http://www.w3.org/1999/xlink" x="0px" y="0px" viewBox="0 0 119 118"
	 style="enable-background:new 0 0 119 118;" xml:space="preserve">
<style type="text/css">
	.st0{fill:#FFFFFF;}
</style>
<rect x="56.2" y="78" class="st0" width="7.3" height="2.8"/>
<rect x="43.3" y="60" class="st0" width="33" height="17.2"/>
<ellipse class="st0" cx="60" cy="47.2" rx="21.7" ry="18.2"/>
<ellipse transform="matrix(0.179 -0.9839 0.9839 0.179 -22.6966 153.3168)" class="st0" cx="80.5" cy="90.3" rx="5.9" ry="18.2"/>
<ellipse transform="matrix(0.9785 -0.2064 0.2064 0.9785 -16.9926 11.6197)" class="st0" cx="47.2" cy="87.3" rx="24.5" ry="5.3"/>
<circle class="st0" cx="60.6" cy="19.9" r="5.6"/>
<sodipodi:namedview  bordercolor="#666666" borderopacity="1.0" id="base" inkscape:current-layer="layer1" inkscape:cx="420.94487" inkscape:cy="151.37844" inkscape:pageopacity="0.0" inkscape:pageshadow="2" inkscape:window-height="994" inkscape:window-width="1270" inkscape:window-x="0" inkscape:window-y="5" inkscape:zoom="1.3674339" pagecolor="#ffffff">
	</sodipodi:namedview>
<g id="layer1" inkscape:groupmode="layer" inkscape:label="Layer 1">
	<path id="path1700" d="M60.2,63.1c-6,0-10.7-0.3-14.1-0.8c0.6,1.2,0.9,2.2,0.9,3.1c0,1.3-0.3,2.4-0.8,3.2c2.5-0.8,7.1-1.2,13.9-1.2
		c6.8,0,11.4,0.4,13.9,1.2c-0.5-0.9-0.8-1.9-0.8-3.2c0-1,0.3-2.1,0.8-3.1C70.1,62.8,65.5,63.1,60.2,63.1 M60.2,16.3
		c-1.8,0-3.1,0.8-3.7,2.5c-0.2,0.4-0.3,0.9-0.3,1.3c0,1.9,0.9,3.1,2.8,3.7c0.3,0.1,0.7,0.1,1.2,0.1c2,0,3.3-0.9,3.9-2.7
		c0.1-0.3,0.1-0.7,0.1-1.2c0-1.7-0.9-2.9-2.6-3.5C61.1,16.4,60.7,16.3,60.2,16.3 M60.2,71.2c-3.3,0-7.5,0.3-12.7,0.9
		c-1.5,0.2-2.3,1-2.6,2.5c0,1,2.4,1.7,7.1,1.9c-0.4-0.1-0.3-0.1,0.5-0.1c0.8,0,3.3,0,7.6,0c10.1,0,15.1-0.6,15.1-1.8
		c0-2-2.5-3.1-7.5-3.2h-3.7c-1.1,0-2.1,0-2.8-0.1H60.2 M60.1,59.3c9.6,0,15.5-0.9,17.7-2.7c1.5-1.1,2.5-4.1,3.2-8.9
		c-0.4-4.3-3.2-8.4-8.4-12.4c-4.8-3.8-9-5.9-12.7-6.3c-3.4,0.4-7.4,2.5-12.3,6.3c-5.1,4-7.8,8.1-8.3,12.4c0.6,4.5,1.5,7.3,2.8,8.5
		c0.3,0.3,0.7,0.6,1.2,0.9C45.6,58.6,51.2,59.3,60.1,59.3 M57.9,53v-5.7h-4.4v-5h4.4v-5.6h4.6v5.6H67v5h-4.4V53H57.9 M60,79.3
		c-0.8,0-3.1,1.5-6.8,4.5c-2.7,1.8-7,2.9-12.9,3.2c-4.3,0-7.7,0.2-10.3,0.6c-2.8,0.6-4.1,1.8-4.1,3.5c0.3,1.7,1.2,2.6,2.7,2.6l6.8-1
		c4.5,0,9.2-0.6,14.1-1.8c5.6-1.5,9.2-3.8,10.8-7c2.3,4.6,8.3,7.3,18.1,8.3c0,0,1.1,0.2,3.4,0.5c2.2,0,3.4,0,3.4,0l7,1
		c1.5,0,2.5-0.9,2.7-2.6c0-1.7-1.4-2.9-4.1-3.5l-13.8-1c-4.4-0.3-8.6-2.1-12.7-5.2C62.3,80.1,60.9,79.3,60,79.3 M60.2,90.6
		c-3.4,3.4-8.4,5.4-15.2,6.2c-2.8,0.3-7.6,0.9-14.5,1.8c-1.8,0.3-2.8,1.2-3.1,2.5c-1.6-0.4-4-3.1-7.2-8c-0.8-1.2-1.3-2-1.7-2.5
		c2.8-5.4,6.4-8.1,10.6-8.1l7.6,0.4c3.5,0,7.7-0.8,12.4-2.5C43,79.6,40,77.7,40,74.8l2.6-9.8c0-0.1,0-0.2,0-0.3
		c-5.2-5.7-7.7-11-7.7-16c0-5.7,2.8-10.8,8.4-15.5c4.9-4.1,8.5-6.3,10.8-6.6c-1.9-2.3-2.8-4.7-2.8-7.2c0-4,2-6.5,5.9-7.5
		c0.9-0.3,2-0.4,3.1-0.4c4.2,0,7,1.6,8.3,4.8l0.6,2.7v0.4c0,2.7-0.9,5.1-2.7,7.2c2.3,0.3,6,2.5,11,6.7c5.5,4.6,8.3,9.7,8.3,15.4
		c0,4.8-2.6,10.2-7.7,16c0,1.2,0.4,2.9,1.3,5.2c0.9,2.8,1.3,4.4,1.3,4.9c0,2.9-3.1,4.8-9.2,5.6c4.6,1.6,8.8,2.5,12.4,2.5l7.6-0.4
		c4.2,0,7.7,2.7,10.6,8.1l-4.4,6.7c-1.5,1.9-3,3.1-4.5,3.7c-0.3-1.7-2.8-2.8-7.5-3.2c0.6,0-0.7-0.1-3.9-0.4
		C70.9,96.4,63.8,94.1,60.2,90.6"/>
</g>
</svg>
