<?xml version="1.0" encoding="utf-8"?>
<!-- Generator: Adobe Illustrator 22.1.0, SVG Export Plug-In . SVG Version: 6.00 Build 0)  -->
<svg version="1.1"
	 id="svg1" inkscape:version="0.40" sodipodi:docbase="/home/vector" sodipodi:docname="chess_set_symbols.svg" sodipodi:version="0.32" xmlns:cc="http://web.resource.org/cc/" xmlns:dc="http://purl.org/dc/elements/1.1/" xmlns:inkscape="http://www.inkscape.org/namespaces/inkscape" xmlns:rdf="http://www.w3.org/1999/02/22-rdf-syntax-ns#" xmlns:sodipodi="http://sodipodi.sourceforge.net/DTD/sodipodi-0.dtd"
	 xmlns="http://www.w3.org/2000/svg" xmlns:xlink="http://www.w3.org/1999/xlink" x="0px" y="0px" viewBox="0 0 95 103"
	 style="enable-background:new 0 0 95 103;" xml:space="preserve">
<style type="text/css">
	.st0{fill:#FFFFFF;}
</style>
<rect x="72" y="43.7" transform="matrix(0.973 -0.231 0.231 0.973 -11.2918 19.2188)" class="st0" width="8.9" height="28.3"/>
<rect x="67.2" y="34.5" class="st0" width="7.7" height="33.6"/>
<rect x="46.3" y="66.5" class="st0" width="36.8" height="13.3"/>
<rect x="50.6" y="28.9" class="st0" width="17.4" height="52.5"/>
<rect x="39.7" y="73.5" class="st0" width="46.3" height="12.5"/>
<rect x="25.2" y="34.5" class="st0" width="5.7" height="8"/>
<rect x="28" y="24.6" class="st0" width="34.3" height="29.7"/>
<rect x="43.3" y="19" class="st0" width="6" height="7.6"/>
<rect x="7.9" y="37.6" transform="matrix(0.5488 -0.836 0.836 0.5488 -24.8145 50.3159)" class="st0" width="52.6" height="21.1"/>
<rect x="29.7" y="18.3" class="st0" width="7" height="5.2"/>
<sodipodi:namedview  bordercolor="#666666" borderopacity="1.0" id="base" inkscape:current-layer="layer1" inkscape:cx="420.94487" inkscape:cy="151.37844" inkscape:pageopacity="0.0" inkscape:pageshadow="2" inkscape:window-height="994" inkscape:window-width="1270" inkscape:window-x="0" inkscape:window-y="5" inkscape:zoom="1.3674339" pagecolor="#ffffff">
	</sodipodi:namedview>
<g id="layer1" inkscape:groupmode="layer" inkscape:label="Layer 1">
	<path id="path1693" d="M20.5,59.1c1.2,0,1.8,0.8,1.8,2.5c0,2.2-1.1,3.2-3.2,3.2c-0.9,0-1.3-0.7-1.3-2.1
		C17.8,60.3,18.7,59.1,20.5,59.1 M29.8,43.3c-1.2,0-1.8-0.7-1.8-2.2c0-2.3,1.4-4.2,4.1-5.7c1.2-0.6,2.3-0.9,3.4-0.9
		c1.8,0,2.8,0.6,3,1.8c0,2-1.5,3.9-4.6,5.7C32.2,42.9,30.9,43.3,29.8,43.3 M30.8,19c0.3,1.2,0.5,2,0.5,2.5c0,0.3-0.1,0.9-0.4,2.1
		c1.4,0,3.3-0.7,5.7-2.1C34.3,20.3,32.4,19.5,30.8,19 M15.5,63.5c0.5,2.1,1.9,3.6,4.1,4.5c0.9,0.3,1.7,0.5,2.5,0.5h0.3
		c0.2,0,1.1-0.5,2.8-1.5c0.5-0.3,0.9-0.5,1.3-0.5H27c0.4,0,0.6,0.3,0.6,0.8l-0.8,2.5c0,0.8,0.6,1.2,1.8,1.2c0.2,0,1.2-1.5,3.2-4.5
		C35.6,60.4,41,56,48,53c0.7-4.6,2.4-8.7,5.2-12.3c0.7-0.9,1.4-1.4,2.1-1.4c0.8,0,1.2,0.6,1.2,1.7c0,0.3-0.8,2.7-2.3,7.4
		c-0.6,2-0.9,3.4-0.9,4.4c0,0.3,0.1,0.8,0.3,1.7c0,6.1-2.6,12.5-7.7,19.2c-3.4,4.6-5.3,8.3-5.7,11.1h42.6c0.3-4,0.5-6.9,0.5-8.8
		c0-17.7-5.6-31.9-16.7-42.5c-3.4-3.1-6.1-4.6-8.1-4.6h-7.7c-0.7-0.3-1.4-2.1-2.1-5.2c-0.5-2.5-1.2-4-1.9-4.6
		c-1,3.1-4.2,5.5-9.6,7.2c-2.8,0.9-4.8,1.7-5.9,2.6c-0.9,3-3.7,9.1-8.4,18.3C18.1,56.3,15.7,61.7,15.5,63.5 M87.8,89.5H33.7
		c0.3-5.9,2.6-11.6,6.7-17c3.2-4.3,5.1-6.9,5.7-7.9c1.2-1.9,1.9-4.2,2.2-6.8c-5.6,2.4-9.9,5.9-13,10.3l-1.8,3
		c-1.3,2.1-2.1,3.2-2.5,3.5c-0.5,0.4-1.1,0.6-1.7,0.6c-2.7,0-4.5-0.9-5.4-2.7c-0.2-0.3-0.3-0.6-0.3-0.9c-0.9,0.4-1.7,0.6-2.6,0.6
		c-4.1,0-7.4-2.6-9.8-7.7c0.7-3.8,4.3-12.5,10.8-26.2c0.7-1.3,1.2-2.3,1.5-3.1c2.6-5.8,3.9-10.1,3.9-13c0-0.4-0.3-2.8-0.8-7.2h1
		c4.6,0,9.1,1.5,13.3,4.4c2.3-4,4.3-6.1,5.8-6.1c2.8,1.5,4.6,3.5,5.7,6.2l1.4,4.3c0.9-0.2,1.6-0.3,2.2-0.3c6.9,0,13.7,4.4,20.4,13.2
		c7.8,10.2,11.7,24.3,11.7,42.1C88.3,82.7,88.1,86.4,87.8,89.5"/>
</g>
</svg>
