<?xml version="1.0" encoding="utf-8"?>
<!-- Generator: Adobe Illustrator 22.1.0, SVG Export Plug-In . SVG Version: 6.00 Build 0)  -->
<svg version="1.1"
	 id="svg1" inkscape:version="0.40" sodipodi:docbase="/home/vector" sodipodi:docname="chess_set_symbols.svg" sodipodi:version="0.32" xmlns:cc="http://web.resource.org/cc/" xmlns:dc="http://purl.org/dc/elements/1.1/" xmlns:inkscape="http://www.inkscape.org/namespaces/inkscape" xmlns:rdf="http://www.w3.org/1999/02/22-rdf-syntax-ns#" xmlns:sodipodi="http://sodipodi.sourceforge.net/DTD/sodipodi-0.dtd"
	 xmlns="http://www.w3.org/2000/svg" xmlns:xlink="http://www.w3.org/1999/xlink" x="0px" y="0px" viewBox="0 0 107 107"
	 style="enable-background:new 0 0 107 107;" xml:space="preserve">
<style type="text/css">
	.st0{fill:#FFFFFF;stroke:#FFFFFF;stroke-miterlimit:10;}
</style>
<rect x="29.8" y="68" class="st0" width="46.1" height="21.2"/>
<rect x="36.5" y="60.8" class="st0" width="32.3" height="26.1"/>
<rect x="45.2" y="19.7" class="st0" width="16.1" height="67.3"/>
<rect x="40.6" y="37.8" class="st0" width="25.8" height="17.7"/>
<sodipodi:namedview  bordercolor="#666666" borderopacity="1.0" id="base" inkscape:current-layer="layer1" inkscape:cx="420.94487" inkscape:cy="151.37844" inkscape:pageopacity="0.0" inkscape:pageshadow="2" inkscape:window-height="994" inkscape:window-width="1270" inkscape:window-x="0" inkscape:window-y="5" inkscape:zoom="1.3674339" pagecolor="#ffffff">
	</sodipodi:namedview>
<g id="layer1" inkscape:groupmode="layer" inkscape:label="Layer 1">
	<path id="path1688" d="M75.8,86.9c0-9-2.5-15.8-7.4-20.3c-1.6-1.5-3.7-3-6.1-4.4c-3.4-2-5-3.8-5-5.4c0-0.9,0.9-1.8,2.6-2.8
		c2.7-1.5,4.3-3.2,4.8-5.2C64.9,48,65,47.1,65,46c0-4-2-7.1-6.1-9.3L56.6,35c-0.4-0.4-0.6-0.9-0.6-1.4c0-1.5,0.5-2.9,1.5-4.4
		c0.7-0.9,1-2.1,1-3.4c0-2.2-1.2-3.9-3.6-4.9c-0.8-0.3-1.5-0.4-2.3-0.4c-2.4,0-4.1,1.1-5.2,3.2c-0.3,0.7-0.5,1.4-0.5,2.1
		c0,0.8,0.6,2.2,1.7,4.4c0.7,1.2,1,2.3,0.9,3.4c0,1-1,2.1-3,3.1c-4,2.3-5.9,5.4-5.9,9.3c0,3.4,1.7,6,5,8c1.6,1.1,2.5,2.1,2.5,2.8
		c0,1.6-1.7,3.4-5,5.4C36.9,66,32.9,70.6,31.2,76c-0.9,3-1.4,6.6-1.4,10.8L75.8,86.9 M25.2,92.1c-0.1-1-0.1-3-0.1-5.9
		c0-10.6,3.1-18.5,9.3-23.8c2.1-1.7,4.7-3.4,7.9-5c-3.3-1-5.5-3.5-6.6-7.5c-0.4-1.3-0.6-2.6-0.6-4c0-5.8,2.9-9.9,8.8-12.4
		c-1.4-2.5-2.1-4.9-2.1-7.4c0-4,1.9-6.9,5.8-8.8c1.6-0.8,3.4-1.2,5.3-1.2c4.4,0,7.6,1.7,9.7,5c0.9,1.5,1.4,3.1,1.4,4.9
		c0,2.3-0.8,4.8-2.3,7.4c5.9,2.4,8.9,6.5,8.9,12.4c0,4.6-1.7,8-5,10.3c-0.7,0.5-1.5,0.9-2.3,1.2c7.7,4,12.8,9,15.1,15.1
		c1.5,3.8,2.2,8.3,2.2,13.7c0,2.8,0,4.8-0.1,5.9H25.2"/>
</g>
</svg>
