<?xml version="1.0" encoding="utf-8"?>
<!-- Generator: Adobe Illustrator 22.1.0, SVG Export Plug-In . SVG Version: 6.00 Build 0)  -->
<svg version="1.1"
	 id="svg1" inkscape:version="0.40" sodipodi:docbase="/home/vector" sodipodi:docname="chess_set_symbols.svg" sodipodi:version="0.32" xmlns:cc="http://web.resource.org/cc/" xmlns:dc="http://purl.org/dc/elements/1.1/" xmlns:inkscape="http://www.inkscape.org/namespaces/inkscape" xmlns:rdf="http://www.w3.org/1999/02/22-rdf-syntax-ns#" xmlns:sodipodi="http://sodipodi.sourceforge.net/DTD/sodipodi-0.dtd"
	 xmlns="http://www.w3.org/2000/svg" xmlns:xlink="http://www.w3.org/1999/xlink" x="0px" y="0px" viewBox="0 0 114 108"
	 style="enable-background:new 0 0 114 108;" xml:space="preserve">
<style type="text/css">
	.st0{fill:#FFFFFF;stroke:#FFFFFF;stroke-miterlimit:10;}
</style>
<rect x="33.1" y="57.3" class="st0" width="47.7" height="31"/>
<rect x="25.8" y="48.2" class="st0" width="62.2" height="11.9"/>
<ellipse transform="matrix(0.2 -0.9798 0.9798 0.2 18.6627 126.7862)" class="st0" cx="87" cy="52" rx="9.9" ry="4.3"/>
<ellipse class="st0" cx="73.5" cy="45.2" rx="4.4" ry="13.3"/>
<ellipse class="st0" cx="57" cy="44.4" rx="3.1" ry="9.7"/>
<ellipse transform="matrix(0.951 -0.3091 0.3091 0.951 -14.3899 10.9964)" class="st0" cx="27.5" cy="50.9" rx="5.3" ry="10"/>
<ellipse class="st0" cx="40.5" cy="44.4" rx="4.5" ry="12.9"/>
<circle class="st0" cx="94.4" cy="29.1" r="4.2"/>
<ellipse class="st0" cx="77.3" cy="21.1" rx="4.8" ry="3.9"/>
<ellipse class="st0" cx="56.9" cy="16.3" rx="3.1" ry="4.3"/>
<ellipse class="st0" cx="35.9" cy="21.1" rx="4.6" ry="3.9"/>
<ellipse class="st0" cx="19.4" cy="29.7" rx="5.4" ry="4.8"/>
<sodipodi:namedview  bordercolor="#666666" borderopacity="1.0" id="base" inkscape:current-layer="layer1" inkscape:cx="420.94487" inkscape:cy="151.37844" inkscape:pageopacity="0.0" inkscape:pageshadow="2" inkscape:window-height="994" inkscape:window-width="1270" inkscape:window-x="0" inkscape:window-y="5" inkscape:zoom="1.3674339" pagecolor="#ffffff">
	</sodipodi:namedview>
<g id="layer1" inkscape:groupmode="layer" inkscape:label="Layer 1">
	<path id="path1715" d="M54,64.6h5.7c1.3,0,2.8,0,4.6,0.1l12.8,0.8h0.1c1.5,0,2.3-0.2,2.3-0.6v-0.5c0-2.6-5.7-4.3-17.2-5
		c-2.1-0.2-3.9-0.3-5.4-0.3c-8.4,0-14.9,0.9-19.5,2.6c-2.1,0.8-3.1,1.7-3.1,2.7v0.5c0,0.4,0.8,0.6,2.3,0.6L54,64.6 M77.9,70.4
		c-6.8-0.9-13.8-1.3-20.9-1.3c-7.5,0-14.5,0.4-20.9,1.3c1,0.9,1.5,2.5,1.5,5c0,1.6-0.3,2.6-0.8,3C42,77.5,48.7,77,57,77
		s15,0.5,20.1,1.4c-0.5-0.3-0.8-1.3-0.8-3C76.4,73,76.9,71.3,77.9,70.4 M57,81.5c-4.4,0-9.3,0.2-14.7,0.6c-4.2,0.3-6.3,1.3-6.3,3
		c0,2.2,7,3.2,21,3.2s21-1.1,21-3.2c0-0.7-0.6-1.3-1.7-1.9C73.1,82.1,66.6,81.5,57,81.5 M57,14c-2.2,0-3.2,1-3.2,3.1
		c0,2.2,1.1,3.4,3.2,3.4c2.1,0,3.1-1.1,3.1-3.4C60.1,15,59.1,14,57,14 M57,10.3c3.1,0,5.2,1.4,6.5,4.3l0.6,2.6v0.4
		c0,0.5-0.3,1.6-1,3.2c-1.2,3.5-1.8,6.6-1.8,9.2c0,4.2,0.9,10.5,2.8,18.7c4.6-9.8,7-17.2,7-22.2l-0.8-5.6c0-3,1.3-5.2,4-6.5
		c0.9-0.5,2-0.8,3.1-0.8c3.1,0,5.3,1.4,6.6,4.1c0.5,1,0.8,2.1,0.8,3.1c0,2.2-0.8,4-2.3,5.3c-2.3,2.3-3.5,6.1-3.6,11.4
		c0,2.2,0.2,5.9,0.6,10.8c5.6-5.8,8.4-10.5,8.4-14.1l-0.6-5c0-2.8,1.3-4.9,3.9-6.3c1-0.6,2.1-0.9,3.2-0.9c2.9,0,5.1,1.3,6.6,4
		l0.8,2.5v0.8c0,3.5-2,6.2-5.9,8c-0.2,3.7-1.6,11-4.3,21.8c-0.2,0.5-0.3,1-0.4,1.4c0,1.2-1.4,3.3-4.1,6.2c-3.7,3.7-5.6,6.6-5.6,8.6
		c0,0.9,1,3.5,3.1,7.6c0.3,0.8,0.5,1.9,0.5,3.5v0.9C85,87.6,85,87.9,85,88.2v0.1l0.1,0.1c0,3.1-8.3,4.8-24.9,5.2c-1.1,0-2.2,0-3.2,0
		l-5.4-0.1h-0.1c-8.1-0.3-14.2-0.9-18.5-2.1c-2.7-0.8-4-1.8-4-3c0.1-0.1,0.1-0.6,0-1.5c-0.1-0.2-0.1-0.3,0-0.5c0-2,0.6-4.3,1.9-6.8
		c1-2.1,1.5-3.5,1.5-4.3c0-1.4-0.7-3-2.2-4.9l-6.3-7.2c-0.7-0.9-1-1.9-1-2.7c-2.7-10.9-4.2-18-4.5-21.3c-0.1-0.7-0.1-1.3-0.1-1.9
		c-4-1.8-5.9-4.5-5.9-8c0-2.8,1.3-4.9,3.9-6.3c1.1-0.6,2.2-0.9,3.4-0.9c3,0,5.2,1.4,6.5,4.1c0.5,0.9,0.8,2,0.8,3.1l-0.6,5
		c0,3.8,2.8,8.5,8.3,14.1c0.4-3.8,0.6-7.4,0.6-10.8c0-4.7-0.6-7.9-1.7-9.4c-0.4-0.6-1.1-1.3-1.9-2.1c-1.5-1-2.3-2.8-2.3-5.2
		c0-3,1.4-5.2,4.3-6.6c0.9-0.4,2-0.6,3.1-0.6c3,0,5.2,1.4,6.5,4.1c0.5,0.9,0.8,2,0.8,3.1l-0.8,5.4v0.1c0,4.9,2.3,12.3,7,22.2
		c1.8-7.8,2.7-14.1,2.7-18.7c0-3.4-0.6-6.7-1.9-9.8c-0.5-1.2-0.8-2.1-0.8-2.6c0-3,1.4-5.2,4.1-6.5C54.8,10.5,55.9,10.3,57,10.3
		 M94.3,26.1c-1.4,0-2.4,0.7-3,2.1c-0.1,0.3-0.1,0.7-0.1,1c0,1.7,0.8,2.8,2.3,3.2c0.3,0.1,0.5,0.1,0.8,0.1c2.2,0,3.2-1.1,3.2-3.4
		C97.5,27.2,96.4,26.1,94.3,26.1 M77.4,17.9c-1.5,0-2.5,0.7-3,2.2l-0.1,1c0,1.5,0.7,2.6,2.2,3.1c0.3,0.1,0.6,0.1,0.9,0.1
		c2.2,0,3.4-1.1,3.4-3.2C80.7,19,79.6,17.9,77.4,17.9 M36.3,17.9c-2.2,0-3.2,1.1-3.2,3.2c0,2.2,1.1,3.2,3.2,3.2
		c2.1,0,3.1-1.1,3.1-3.2C39.4,19,38.4,17.9,36.3,17.9 M19.4,26.1c-2.2,0-3.2,1-3.2,3.1c0,2.2,1.1,3.4,3.2,3.4s3.1-1.1,3.1-3.4
		c0-1.5-0.7-2.5-2.2-3C20.1,26.2,19.8,26.1,19.4,26.1 M57,34.4c-1.2,7.6-2.8,13-4.6,16.4l-1.9,3.1V54c-0.3-0.3-1.4-1.5-3.4-3.9
		c-2.5-2.9-5.1-8.5-7.9-16.7c0.2,1.2,0.3,2.5,0.3,3.7c0,4-0.7,10.3-2.2,18.7c-4.6-2.8-9.2-7.1-13.6-13.2c1.5,7.4,2.6,12.3,3.4,14.6
		c0.5,1.7,1.2,2.7,1.9,3c7.1-4,16.4-6.1,28-6.1c11.7,0,21,2,28,6.1c1.5-0.5,3.3-6.4,5.2-17.6c-4.5,6.2-9,10.6-13.4,13.2
		c-1.5-7.5-2.2-13.4-2.2-17.7c0-1.1,0.1-2.7,0.3-4.8c-1.7,5.2-3.7,9.8-5.9,13.8c-1.2,1.8-2.5,3.5-4,5.2c-0.7,0.7-1.1,1.2-1.3,1.5
		l-2.8-5c-0.1-0.3-0.2-0.7-0.4-1C59.7,46.1,58.5,41.5,57,34.4"/>
</g>
</svg>
