<?xml version="1.0" encoding="utf-8"?>
<!-- Generator: Adobe Illustrator 22.1.0, SVG Export Plug-In . SVG Version: 6.00 Build 0)  -->
<svg version="1.1"
	 id="svg1" inkscape:version="0.40" sodipodi:docbase="/home/vector" sodipodi:docname="chess_set_symbols.svg" sodipodi:version="0.32" xmlns:cc="http://web.resource.org/cc/" xmlns:dc="http://purl.org/dc/elements/1.1/" xmlns:inkscape="http://www.inkscape.org/namespaces/inkscape" xmlns:rdf="http://www.w3.org/1999/02/22-rdf-syntax-ns#" xmlns:sodipodi="http://sodipodi.sourceforge.net/DTD/sodipodi-0.dtd"
	 xmlns="http://www.w3.org/2000/svg" xmlns:xlink="http://www.w3.org/1999/xlink" x="0px" y="0px" viewBox="0 0 116 116"
	 style="enable-background:new 0 0 116 116;" xml:space="preserve">
<style type="text/css">
	.st0{fill:#FFFFFF;}
</style>
<ellipse transform="matrix(0.7814 -0.624 0.624 0.7814 -17.4265 60.0672)" class="st0" cx="77" cy="54.9" rx="19.4" ry="14.2"/>
<ellipse transform="matrix(0.5758 -0.8176 0.8176 0.5758 -29.0585 56.5897)" class="st0" cx="40" cy="56.3" rx="14.2" ry="19.4"/>
<rect x="35" y="67.2" class="st0" width="47.3" height="24.5"/>
<rect x="51.7" y="31.6" class="st0" width="13.3" height="20.9"/>
<sodipodi:namedview  bordercolor="#666666" borderopacity="1.0" id="base" inkscape:current-layer="layer1" inkscape:cx="420.94487" inkscape:cy="151.37844" inkscape:pageopacity="0.0" inkscape:pageshadow="2" inkscape:window-height="994" inkscape:window-width="1270" inkscape:window-x="0" inkscape:window-y="5" inkscape:zoom="1.3674339" pagecolor="#ffffff">
	</sodipodi:namedview>
<g id="layer1" inkscape:groupmode="layer" inkscape:label="Layer 1">
	<path id="path1721" d="M58.6,96c-17.1,0-25.8-2.9-26.1-8.6c-0.4-7.9-1.8-13.9-4-17.9c-0.9-1.6-2.3-3.6-4-5.9
		c-2.9-3.9-4.6-7.1-4.9-9.8c-0.1-0.7-0.1-1.4-0.1-2.2c0-5.4,2.3-9.7,6.8-12.8c1.1-0.7,2.3-1.2,3.5-1.7c4.6-1.6,9.1-1.4,13.6,0.8
		c1.6,0.8,3.3,1.8,4.9,3.1l0.1,0.1c0-1.8,0.1-3.7,0.3-5.8c0-0.6,0.3-1.4,0.9-2.5c1.4-2.2,3-4,4.9-5.3c0.3-0.2,0.7-0.4,1-0.6v-3.1
		l-5.3-3.1V16H55l1.7-4.9h3.9l1.7,4.9H67v4.6l-5.3,3.1v3.1c4.5,2.8,6.8,5.7,6.8,8.5c0.2,1.7,0.3,3.6,0.3,5.7l0.1-0.1
		c5.4-4.6,11.1-6,17-4.4c1.5,0.4,3,1.1,4.4,1.9c4.8,2.9,7.3,7.3,7.4,13c0,3.4-1.7,7.5-5.2,12.3c-2.8,4-4.6,6.8-5.3,8.6
		c-1.5,3.9-2.3,8.9-2.6,15C84.5,93.1,75.8,96,58.6,96 M58.6,52.5l3.7-5.9c0.6-1.3,1.1-2.5,1.4-3.6c0.2-0.6,0.3-1.9,0.3-3.7
		c0-5.1-1.8-7.6-5.3-7.6c-3.7,0-5.6,2.5-5.6,7.6c0,1.9,0.1,3.1,0.3,3.7c0.7,2.3,2.2,5.1,4.4,8.3C58.4,51.8,58.6,52.2,58.6,52.5
		 M93.1,52.2c0-3.9-1.3-6.8-3.9-8.9c-2.2-1.8-4.7-2.7-7.6-2.7c-3.7,0-7.7,1.9-12,5.7c-5.1,4.4-8,10.3-8.6,17.8
		c0,0.6,1.6,1.3,4.8,2.1c3.7,0.7,10,1,18.8,1l5.8-7.7C92.2,56.7,93.1,54.3,93.1,52.2 M58.6,69.7c-2.2,0.9-8.7,1.8-19.6,2.5
		c-1.6,0.1-3,0.2-4,0.3c0.9,3.3,1.4,6.9,1.7,10.8c5.9-1.9,13.3-2.8,21.9-2.8c8.9,0,16.2,0.9,21.9,2.8c0.3-4.3,0.8-7.9,1.7-10.8
		l-19.1-1.5C61.5,70.6,60,70.2,58.6,69.7 M24.2,52.2c0,2.7,2.1,6.7,6.3,12.1c1,1.3,1.8,2.2,2.2,2.8H35c8.9,0,15.3-0.6,19.4-1.8
		c1.3-0.3,1.9-0.8,1.9-1.3c-0.7-7.5-3.6-13.4-8.6-17.8c-4.2-3.8-8.2-5.7-12-5.7c-1.2,0-2.5,0.3-3.9,0.8c-3.4,0.9-5.8,3.1-7,6.8
		l-0.6,3.5V52.2 M58.6,91.4c8.1,0,13.7-0.5,16.8-1.5c0.8-0.3,1.2-0.6,1.2-0.9c0-2.2-5.9-3.4-17.8-3.4c-4.6,0-9,0.3-13.3,0.9
		c-3.2,0.5-4.8,1.3-4.8,2.5c0,1.3,5.1,2.1,15.2,2.5C57,91.4,57.9,91.4,58.6,91.4"/>
</g>
</svg>
